<svg width="60" height="60" viewBox="0 0 60 60" fill="none" xmlns="http://www.w3.org/2000/svg">
<path d="M0 30C0 13.4315 13.4315 0 30 0C46.5685 0 60 13.4315 60 30C60 46.5685 46.5685 60 30 60C13.4315 60 0 46.5685 0 30Z" fill="#0A0F13"/>
<g clip-path="url(#clip0_5170_1801)">
<path d="M18.9994 43.2697C18.9994 43.2228 19.0953 43.1555 19.1329 43.1249C19.3226 42.9821 19.7938 42.5884 20.5527 41.7826C20.5652 41.7703 20.5798 41.7601 20.5944 41.754C21.0593 41.5704 21.6848 40.8524 22.1164 40.3138C22.4166 40.0976 22.5292 39.6733 22.9879 39.4979C23.3235 39.2857 23.6342 39.0062 23.8885 38.6554C23.9949 38.278 24.4952 38.3473 24.7892 37.8129C25.152 37.413 25.3417 37.4273 25.6607 36.9969C26.0631 36.5542 26.5927 35.8647 27.191 35.5567C27.2015 35.5506 27.2098 35.5445 27.2181 35.5363C28.0459 34.6836 28.4086 34.5367 28.6776 34.1859C28.7026 34.1553 28.7193 34.1165 28.7276 34.0777C28.7923 33.7391 28.6818 33.3066 28.7151 32.8273C28.7339 32.1724 28.6088 31.7563 28.7151 31.5196C29.0278 31.3483 29.5261 31.6951 29.9619 31.5298C29.9786 31.5237 29.9973 31.5217 30.0161 31.5258C30.6979 31.6543 31.1315 31.4809 31.2608 31.5196C31.5172 31.6257 31.6924 32.3927 31.267 33.3168C31.2629 33.327 31.2608 33.3372 31.2608 33.3474C31.2796 33.7677 31.2858 34.4674 31.242 35.2793C31.2253 35.6811 31.2045 35.9402 31.2525 36.4135C31.315 37.1132 31.3087 37.3641 31.2587 37.6558C31.3067 38.1739 31.1753 38.5248 31.2587 38.9328C31.2691 39.3632 31.1628 39.759 31.2483 40.1935C31.2545 40.222 31.2545 40.2506 31.2483 40.2771C31.1503 40.6769 31.0669 41.2175 31.2441 41.5154C31.2545 41.5317 31.2587 41.548 31.2545 41.5664C31.2045 41.9621 31.2212 42.4945 31.2587 42.8168C31.3046 43.133 31.3525 43.5492 31.265 44.0061C31.2608 44.0286 31.265 44.053 31.2754 44.0755C31.4109 44.3284 31.4359 44.6263 31.265 45.1689C31.2608 45.1832 31.2587 45.1954 31.2566 45.2097C31.2483 45.6238 31.4693 46.3521 31.2629 47.1191C31.2587 47.1354 31.2587 47.1517 31.2608 47.168C31.4109 48.1227 31.2796 48.6959 31.2608 48.9081C31.2587 48.9387 31.2441 48.9713 31.217 48.9836C31.0169 49.0733 30.6666 48.7735 30.0369 48.9428C30.0057 48.9509 29.9723 48.9448 29.9452 48.9285C29.6408 48.7327 28.9695 48.8551 28.7693 48.9285C28.6984 48.953 28.6234 48.902 28.6192 48.8285C28.6109 48.5695 28.7485 47.9493 28.7109 47.1476C28.7109 47.1395 28.7109 47.1354 28.7089 47.1272C28.6547 46.8845 28.5984 45.6911 28.7109 45.2688C28.8882 44.5589 28.6901 43.7878 28.7109 43.1371C28.7109 43.131 28.7109 43.1249 28.7109 43.1187C28.565 42.2253 28.7672 41.6255 28.7109 40.987C28.7547 40.271 28.6692 39.6774 28.7109 39.1266C28.7109 39.1225 28.7109 39.1184 28.7109 39.1143C28.6692 38.3412 28.7464 37.7333 28.7255 37.4151C28.7193 37.3314 28.6213 37.2886 28.5525 37.3396C28.3336 37.5008 28.0459 38.0373 27.5267 38.4065C27.2327 38.8655 26.4905 38.9348 26.2799 39.5611C26.2758 39.5733 26.2695 39.5835 26.2612 39.5917C25.8859 40.0099 25.4877 40.4852 24.7955 40.9646C24.7871 40.9707 24.7788 40.9789 24.7725 40.985C24.4848 41.3501 24.1075 41.4603 23.8823 41.8152C23.5591 42.0355 23.3882 42.2579 22.9879 42.6516C22.9837 42.6557 22.9795 42.6618 22.9753 42.6659C22.7126 43.0086 22.4187 43.3105 22.133 43.4635C22.1164 43.4717 22.1059 43.4839 22.0976 43.5002C21.7744 44.1081 21.0051 44.5712 20.5652 44.9241C19.848 45.4912 19.406 45.8502 19.1891 46.1215C19.1433 46.1787 19.0536 46.1481 19.0515 46.0767L18.9932 43.2677L18.9994 43.2697Z" fill="#F5F6E6"/>
<path d="M40.9384 46.0788C40.9384 46.1502 40.8467 46.1808 40.8008 46.1237C40.584 45.8524 40.142 45.4933 39.4247 44.9262C38.9827 44.5733 38.2155 44.1103 37.8902 43.5024C37.8819 43.486 37.8694 43.4738 37.8548 43.4656C37.5692 43.3147 37.2752 43.0107 37.0125 42.668C37.0083 42.6639 37.0042 42.6578 37 42.6537C36.5997 42.26 36.4287 42.0356 36.1056 41.8174C35.8804 41.4604 35.503 41.3523 35.2153 40.9871C35.209 40.979 35.2007 40.9708 35.1924 40.9667C34.5002 40.4853 34.102 40.01 33.7267 39.5938C33.7183 39.5857 33.7121 39.5734 33.7079 39.5632C33.4973 38.937 32.7551 38.8676 32.4611 38.4086C31.9441 38.0394 31.6564 37.5029 31.4374 37.3417C31.3686 37.2907 31.2686 37.3315 31.2644 37.4172C31.2435 37.7375 31.3207 38.3454 31.279 39.1165C31.279 39.1206 31.279 39.1247 31.279 39.1287C31.3207 39.6795 31.2331 40.2752 31.279 40.9892C31.2248 41.6277 31.427 42.2274 31.279 43.1209C31.279 43.127 31.279 43.1331 31.279 43.1393C31.2998 43.79 31.1018 44.5611 31.279 45.271C31.3916 45.6912 31.3353 46.8866 31.2811 47.1294C31.2811 47.1355 31.279 47.1416 31.279 47.1498C31.2435 47.9515 31.3811 48.5696 31.3728 48.8307C31.3707 48.9041 31.2936 48.9572 31.2227 48.9306C31.0225 48.8592 30.3512 48.7368 30.0468 48.9306C30.0197 48.947 29.9863 48.9551 29.9551 48.9449C29.3254 48.7756 28.9752 49.0755 28.775 48.9857C28.7458 48.9735 28.7333 48.9408 28.7312 48.9102C28.7104 48.6981 28.5811 48.1269 28.7312 47.1702C28.7333 47.1539 28.7312 47.1375 28.7291 47.1212C28.5227 46.3542 28.7437 45.6259 28.7354 45.2118C28.7354 45.1976 28.7312 45.1833 28.7271 45.171C28.5561 44.6284 28.579 44.3306 28.7166 44.0776C28.7291 44.0572 28.7312 44.0327 28.7271 44.0083C28.6395 43.5513 28.6874 43.1372 28.7354 42.819C28.7729 42.4967 28.7875 41.9642 28.7396 41.5685C28.7375 41.5501 28.7396 41.5338 28.7521 41.5175C28.9272 41.2197 28.8438 40.6811 28.7479 40.2793C28.7416 40.2507 28.7416 40.2221 28.7479 40.1956C28.8355 39.7611 28.7271 39.3654 28.7396 38.9349C28.823 38.5249 28.6916 38.1761 28.7396 37.6579C28.6895 37.3662 28.6833 37.1153 28.7458 36.4156C28.7938 35.9423 28.7729 35.6833 28.7583 35.2814C28.7145 34.4695 28.7229 33.7698 28.7396 33.3496C28.7396 33.3394 28.7375 33.3292 28.7333 33.319C28.308 32.3929 28.4831 31.6258 28.7416 31.5218C28.8709 31.483 29.3046 31.6564 29.9863 31.5279C30.0051 31.5238 30.0218 31.5279 30.0405 31.534C30.4763 31.6972 30.9746 31.3504 31.2873 31.5238C31.3937 31.7625 31.2686 32.1766 31.2873 32.8314C31.3186 33.3108 31.2081 33.7433 31.2748 34.0819C31.2832 34.1207 31.2998 34.1574 31.3249 34.19C31.5938 34.5409 31.9566 34.6878 32.7843 35.5405C32.7926 35.5486 32.801 35.5568 32.8114 35.5609C33.4098 35.8689 33.9393 36.5604 34.3417 37.0011C34.6628 37.4335 34.8504 37.4172 35.2132 37.8171C35.5072 38.3515 36.0076 38.2822 36.1139 38.6595C36.3662 39.0104 36.6789 39.2899 37.0146 39.502C37.4753 39.6795 37.5858 40.1018 37.8861 40.318C38.3156 40.8545 38.9431 41.5746 39.4081 41.7582C39.4247 41.7643 39.4393 41.7745 39.4498 41.7868C40.2108 42.5946 40.6799 42.9863 40.8696 43.1291C40.9071 43.1576 41.0009 43.227 41.003 43.2739L40.9446 46.0829L40.9384 46.0788Z" fill="#F5F6E6"/>
<path d="M18.9994 33.0374C18.9994 32.9904 19.0953 32.9231 19.1329 32.8925C19.3226 32.7497 19.7938 32.356 20.5527 31.5503C20.5652 31.538 20.5798 31.5278 20.5944 31.5217C21.0593 31.3381 21.6848 30.62 22.1164 30.0815C22.4166 29.8653 22.5292 29.441 22.9879 29.2655C23.3235 29.0534 23.6342 28.7739 23.8885 28.423C23.9949 28.0436 24.4952 28.115 24.7892 27.5785C25.152 27.1787 25.3417 27.1929 25.6607 26.7625C26.0631 26.3198 26.5927 25.6303 27.191 25.3223C27.2015 25.3162 27.2098 25.3101 27.2181 25.3019C28.0459 24.4492 28.4086 24.3023 28.6776 23.9515C28.7026 23.9209 28.7193 23.8821 28.7276 23.8434C28.7923 23.5047 28.6818 23.0723 28.7151 22.5929C28.7339 21.9381 28.6088 21.5219 28.7151 21.2853C29.0278 21.1139 29.5261 21.4607 29.9619 21.2955C29.9786 21.2894 29.9973 21.2873 30.0161 21.2914C30.6979 21.4199 31.1315 21.2465 31.2608 21.2853C31.5172 21.3914 31.6924 22.1584 31.267 23.0825C31.2629 23.0927 31.2608 23.1029 31.2608 23.1131C31.2796 23.5333 31.2858 24.233 31.242 25.0449C31.2253 25.4468 31.2045 25.7058 31.2525 26.1791C31.315 26.8788 31.3087 27.1297 31.2587 27.4214C31.3067 27.9396 31.1753 28.2904 31.2587 28.6984C31.2691 29.1288 31.1628 29.5246 31.2483 29.9591C31.2545 29.9877 31.2545 30.0162 31.2483 30.0427C31.1503 30.4426 31.0669 30.9831 31.2441 31.281C31.2545 31.2973 31.2587 31.3136 31.2545 31.332C31.2045 31.7277 31.2212 32.2602 31.2587 32.5825C31.3046 32.8987 31.3525 33.3148 31.265 33.7717C31.2608 33.7942 31.265 33.8187 31.2754 33.8411C31.4109 34.092 31.4359 34.3919 31.265 34.9345C31.2608 34.9488 31.2587 34.961 31.2566 34.9753C31.2483 35.3894 31.4693 36.1177 31.2629 36.8847C31.2587 36.901 31.2587 36.9173 31.2608 36.9337C31.4109 37.8883 31.2796 38.4616 31.2608 38.6737C31.2587 38.7043 31.2441 38.737 31.217 38.7492C31.0169 38.839 30.6666 38.5391 30.0369 38.7084C30.0057 38.7166 29.9723 38.7104 29.9452 38.6941C29.6408 38.4983 28.9695 38.6207 28.7693 38.6941C28.6984 38.7206 28.6234 38.6676 28.6192 38.5942C28.6109 38.3351 28.7485 37.715 28.7109 36.9133C28.7109 36.9051 28.7109 36.901 28.7089 36.8929C28.6547 36.6501 28.5984 35.4567 28.7109 35.0345C28.8882 34.3246 28.6901 33.5535 28.7109 32.9027C28.7109 32.8966 28.7109 32.8905 28.7109 32.8844C28.565 31.9909 28.7672 31.3911 28.7109 30.7526C28.7547 30.0366 28.6692 29.443 28.7109 28.8922C28.7109 28.8881 28.7109 28.884 28.7109 28.88C28.6692 28.1068 28.7464 27.4989 28.7255 27.1807C28.7193 27.0971 28.6213 27.0542 28.5525 27.1052C28.3336 27.2664 28.0459 27.8029 27.5267 28.1721C27.2327 28.6311 26.4905 28.7005 26.2799 29.3267C26.2758 29.339 26.2695 29.3492 26.2612 29.3573C25.8859 29.7755 25.4877 30.2508 24.7955 30.7302C24.7871 30.7363 24.7788 30.7445 24.7725 30.7526C24.4848 31.1178 24.1075 31.2279 23.8823 31.5829C23.5591 31.8032 23.3882 32.0256 22.9879 32.4193C22.9837 32.4233 22.9795 32.4295 22.9753 32.4335C22.7126 32.7763 22.4187 33.0782 22.133 33.2312C22.1164 33.2393 22.1059 33.2516 22.0976 33.2679C21.7744 33.8758 21.0051 34.3388 20.5652 34.6918C19.848 35.2589 19.406 35.6179 19.1891 35.8892C19.1433 35.9463 19.0536 35.9157 19.0515 35.8443L18.9932 33.0353L18.9994 33.0374Z" fill="#F5F6E6"/>
<path d="M40.9384 35.8444C40.9384 35.9158 40.8467 35.9464 40.8008 35.8892C40.584 35.6179 40.142 35.2589 39.4247 34.6918C38.9827 34.3389 38.2155 33.8758 37.8902 33.2679C37.8819 33.2516 37.8694 33.2394 37.8548 33.2312C37.5692 33.0802 37.2752 32.7763 37.0125 32.4336C37.0083 32.4295 37.0042 32.4234 37 32.4193C36.5997 32.0256 36.4287 31.8012 36.1056 31.5829C35.8804 31.2259 35.503 31.1178 35.2153 30.7527C35.209 30.7445 35.2007 30.7364 35.1924 30.7323C34.5002 30.2508 34.102 29.7755 33.7267 29.3594C33.7183 29.3492 33.7121 29.339 33.7079 29.3288C33.4973 28.7025 32.7551 28.6332 32.4611 28.1742C31.9441 27.805 31.6564 27.2685 31.4374 27.1073C31.3686 27.0563 31.2686 27.0971 31.2644 27.1828C31.2435 27.503 31.3207 28.111 31.279 28.882C31.279 28.8861 31.279 28.8902 31.279 28.8943C31.3207 29.4451 31.2331 30.0407 31.279 30.7547C31.2248 31.3932 31.427 31.993 31.279 32.8864C31.279 32.8926 31.279 32.8987 31.279 32.9048C31.2998 33.5555 31.1018 34.3266 31.279 35.0365C31.3916 35.4568 31.3353 36.6522 31.2811 36.8949C31.2811 36.9011 31.279 36.9072 31.279 36.9153C31.2435 37.717 31.3811 38.3351 31.3728 38.5942C31.3707 38.6676 31.2936 38.7207 31.2227 38.6942C31.0225 38.6228 30.3512 38.5004 30.0468 38.6942C30.0197 38.7105 29.9863 38.7186 29.9551 38.7084C29.3254 38.5391 28.9752 38.839 28.775 38.7492C28.7458 38.737 28.7333 38.7044 28.7312 38.6738C28.7104 38.4616 28.5811 37.8904 28.7312 36.9337C28.7333 36.9174 28.7312 36.9011 28.7291 36.8847C28.5227 36.1177 28.7437 35.3895 28.7354 34.9753C28.7354 34.9611 28.7312 34.9468 28.7271 34.9345C28.5561 34.3919 28.579 34.0941 28.7166 33.8411C28.7291 33.8207 28.7312 33.7963 28.7271 33.7718C28.6395 33.3148 28.6874 32.9007 28.7354 32.5825C28.7729 32.2602 28.7875 31.7278 28.7396 31.332C28.7375 31.3137 28.7396 31.2973 28.7521 31.281C28.9272 30.9832 28.8438 30.4446 28.7479 30.0428C28.7416 30.0142 28.7416 29.9857 28.7479 29.9591C28.8355 29.5246 28.7271 29.1289 28.7396 28.6985C28.823 28.2884 28.6916 27.9396 28.7396 27.4215C28.6895 27.1297 28.6833 26.8788 28.7458 26.1791C28.7938 25.7059 28.7729 25.4468 28.7583 25.0449C28.7145 24.233 28.7229 23.5333 28.7396 23.1131C28.7396 23.1029 28.7375 23.0907 28.7333 23.0825C28.308 22.1564 28.4831 21.3893 28.7416 21.2853C28.8709 21.2466 29.3046 21.4199 29.9863 21.2914C30.0051 21.2874 30.0218 21.2914 30.0405 21.2955C30.4763 21.4587 30.9746 21.1119 31.2873 21.2853C31.3937 21.524 31.2686 21.9381 31.2873 22.5929C31.3186 23.0723 31.2081 23.5048 31.2748 23.8434C31.2832 23.8822 31.2998 23.9189 31.3249 23.9515C31.5938 24.3024 31.9566 24.4472 32.7843 25.302C32.7926 25.3101 32.801 25.3183 32.8114 25.3224C33.4098 25.6304 33.9393 26.3219 34.3417 26.7625C34.6628 27.195 34.8504 27.1787 35.2132 27.5785C35.5072 28.113 36.0076 28.0436 36.1139 28.4231C36.3662 28.7739 36.6789 29.0534 37.0146 29.2656C37.4753 29.443 37.5858 29.8653 37.8861 30.0815C38.3156 30.6201 38.9431 31.3381 39.4081 31.5217C39.4247 31.5278 39.4393 31.538 39.4498 31.5503C40.2108 32.3581 40.6799 32.7518 40.8696 32.8926C40.9071 32.9211 41.0009 32.9905 41.003 33.0374L40.9446 35.8464L40.9384 35.8444Z" fill="#F5F6E6"/>
<path d="M18.9994 22.803C18.9994 22.7561 19.0953 22.6888 19.1329 22.6582C19.3226 22.5154 19.7938 22.1217 20.5527 21.3159C20.5652 21.3036 20.5798 21.2934 20.5944 21.2873C21.0593 21.1037 21.6848 20.3857 22.1164 19.8471C22.4166 19.6309 22.5292 19.2066 22.9879 19.0311C23.3235 18.819 23.6342 18.5395 23.8885 18.1886C23.9949 17.8092 24.4952 17.8806 24.7892 17.3441C25.152 16.9443 25.3417 16.9586 25.6607 16.5281C26.0631 16.0855 26.5927 15.396 27.191 15.0879C27.2015 15.0818 27.2098 15.0757 27.2181 15.0675C28.0459 14.2148 28.4086 14.068 28.6776 13.7171C28.7026 13.6865 28.7193 13.6477 28.7276 13.609C28.7923 13.2704 28.6818 12.8379 28.7151 12.3585C28.7339 11.7037 28.6088 11.2875 28.7151 11.0509C29.0278 10.8795 29.5261 11.2263 29.9619 11.0611C29.9786 11.055 29.9973 11.0529 30.0161 11.057C30.6979 11.1855 31.1315 11.0121 31.2608 11.0509C31.5172 11.157 31.6924 11.924 31.267 12.8481C31.2629 12.8583 31.2608 12.8685 31.2608 12.8787C31.2796 13.2989 31.2858 13.9986 31.242 14.8105C31.2253 15.2124 31.2045 15.4714 31.2525 15.9447C31.315 16.6444 31.3087 16.8953 31.2587 17.187C31.3067 17.7052 31.1753 18.0561 31.2587 18.464C31.2691 18.8945 31.1628 19.2902 31.2483 19.7247C31.2545 19.7533 31.2545 19.7818 31.2483 19.8084C31.1503 20.2082 31.0669 20.7488 31.2441 21.0466C31.2545 21.0629 31.2587 21.0792 31.2545 21.0976C31.2045 21.4934 31.2212 22.0258 31.2587 22.3481C31.3046 22.6643 31.3525 23.0804 31.265 23.5374C31.2608 23.5598 31.265 23.5843 31.2754 23.6067C31.4109 23.8576 31.4359 24.1575 31.265 24.7001C31.2608 24.7144 31.2587 24.7267 31.2566 24.7409C31.2483 25.155 31.4693 25.8833 31.2629 26.6503C31.2587 26.6666 31.2587 26.683 31.2608 26.6993C31.4109 27.654 31.2796 28.2272 31.2608 28.4393C31.2587 28.4699 31.2441 28.5026 31.217 28.5148C31.0169 28.6046 30.6666 28.3047 30.0369 28.474C30.0057 28.4822 29.9723 28.4761 29.9452 28.4597C29.6408 28.2639 28.9695 28.3863 28.7693 28.4597C28.6984 28.4863 28.6234 28.4332 28.6192 28.3598C28.6109 28.1007 28.7485 27.4806 28.7109 26.6789C28.7109 26.6707 28.7109 26.6666 28.7089 26.6585C28.6547 26.4157 28.5984 25.2224 28.7109 24.8001C28.8882 24.0902 28.6901 23.3191 28.7109 22.6684C28.7109 22.6622 28.7109 22.6561 28.7109 22.65C28.565 21.7565 28.7672 21.1568 28.7109 20.5183C28.7547 19.8022 28.6692 19.2086 28.7109 18.6578C28.7109 18.6538 28.7109 18.6497 28.7109 18.6456C28.6692 17.8725 28.7464 17.2646 28.7255 16.9463C28.7193 16.8627 28.6213 16.8198 28.5525 16.8708C28.3336 17.032 28.0459 17.5685 27.5267 17.9377C27.2327 18.3967 26.4905 18.4661 26.2799 19.0923C26.2758 19.1046 26.2695 19.1148 26.2612 19.1229C25.8859 19.5411 25.4877 20.0164 24.7955 20.4958C24.7871 20.5019 24.7788 20.5101 24.7725 20.5183C24.4848 20.8834 24.1075 20.9936 23.8823 21.3485C23.5591 21.5688 23.3882 21.7912 22.9879 22.1849C22.9837 22.189 22.9795 22.1951 22.9753 22.1992C22.7126 22.5419 22.4187 22.8438 22.133 22.9968C22.1164 23.0049 22.1059 23.0172 22.0976 23.0335C21.7744 23.6414 21.0051 24.1045 20.5652 24.4574C19.848 25.0245 19.406 25.3835 19.1891 25.6548C19.1433 25.7119 19.0536 25.6813 19.0515 25.61L18.9932 22.801L18.9994 22.803Z" fill="#F5F6E6"/>
<path d="M40.9384 25.61C40.9384 25.6814 40.8467 25.712 40.8008 25.6549C40.584 25.3836 40.142 25.0245 39.4247 24.4574C38.9827 24.1045 38.2155 23.6414 37.8902 23.0335C37.8819 23.0172 37.8694 23.005 37.8548 22.9968C37.5692 22.8459 37.2752 22.5419 37.0125 22.1992C37.0083 22.1951 37.0042 22.189 37 22.1849C36.5997 21.7912 36.4287 21.5668 36.1056 21.3486C35.8804 20.9916 35.503 20.8834 35.2153 20.5183C35.209 20.5101 35.2007 20.502 35.1924 20.4979C34.5002 20.0165 34.102 19.5412 33.7267 19.125C33.7183 19.1148 33.7121 19.1046 33.7079 19.0944C33.4973 18.4682 32.7551 18.3988 32.4611 17.9398C31.9441 17.5706 31.6564 17.0341 31.4374 16.8729C31.3686 16.8219 31.2686 16.8627 31.2644 16.9484C31.2435 17.2687 31.3207 17.8766 31.279 18.6477C31.279 18.6518 31.279 18.6558 31.279 18.6599C31.3207 19.2107 31.2331 19.8064 31.279 20.5203C31.2248 21.1588 31.427 21.7586 31.279 22.6521C31.279 22.6582 31.279 22.6643 31.279 22.6704C31.2998 23.3212 31.1018 24.0923 31.279 24.8022C31.3916 25.2224 31.3353 26.4178 31.2811 26.6606C31.2811 26.6667 31.279 26.6728 31.279 26.681C31.2435 27.4827 31.3811 28.1008 31.3728 28.3598C31.3707 28.4333 31.2936 28.4863 31.2227 28.4598C31.0225 28.3884 30.3512 28.266 30.0468 28.4598C30.0197 28.4761 29.9863 28.4822 29.9551 28.4741C29.3254 28.3047 28.9752 28.6046 28.775 28.5149C28.7458 28.5026 28.7333 28.47 28.7312 28.4394C28.7104 28.2272 28.5811 27.656 28.7312 26.6993C28.7333 26.683 28.7312 26.6667 28.7291 26.6504C28.5227 25.8833 28.7437 25.1551 28.7354 24.741C28.7354 24.7267 28.7312 24.7124 28.7271 24.7002C28.5561 24.1575 28.579 23.8597 28.7166 23.6068C28.7291 23.5864 28.7312 23.5619 28.7271 23.5374C28.6395 23.0805 28.6874 22.6664 28.7354 22.3481C28.7729 22.0258 28.7875 21.4934 28.7396 21.0976C28.7375 21.0793 28.7396 21.063 28.7521 21.0466C28.9272 20.7488 28.8438 20.2103 28.7479 19.8084C28.7416 19.7798 28.7416 19.7513 28.7479 19.7248C28.8355 19.2903 28.7271 18.8945 28.7396 18.4641C28.823 18.054 28.6916 17.7052 28.7396 17.1871C28.6895 16.8954 28.6833 16.6445 28.7458 15.9448C28.7938 15.4715 28.7729 15.2124 28.7583 14.8105C28.7145 13.9986 28.7229 13.2989 28.7396 12.8787C28.7396 12.8685 28.7375 12.8563 28.7333 12.8481C28.308 11.922 28.4831 11.155 28.7416 11.0509C28.8709 11.0122 29.3046 11.1856 29.9863 11.0571C30.0051 11.053 30.0218 11.0571 30.0405 11.0611C30.4763 11.2243 30.9746 10.8775 31.2873 11.0509C31.3937 11.2896 31.2686 11.7037 31.2873 12.3585C31.3186 12.8379 31.2081 13.2704 31.2748 13.609C31.2832 13.6478 31.2998 13.6845 31.3249 13.7171C31.5938 14.068 31.9566 14.2128 32.7843 15.0676C32.7926 15.0757 32.801 15.0839 32.8114 15.088C33.4098 15.396 33.9393 16.0875 34.3417 16.5282C34.6628 16.9606 34.8504 16.9443 35.2132 17.3442C35.5072 17.8786 36.0076 17.8093 36.1139 18.1887C36.3662 18.5396 36.6789 18.819 37.0146 19.0312C37.4753 19.2087 37.5858 19.6309 37.8861 19.8472C38.3156 20.3857 38.9431 21.1038 39.4081 21.2874C39.4247 21.2935 39.4393 21.3037 39.4498 21.3159C40.2108 22.1237 40.6799 22.5174 40.8696 22.6582C40.9071 22.6868 41.0009 22.7561 41.003 22.803L40.9446 25.612L40.9384 25.61Z" fill="#F5F6E6"/>
<path d="M21.2151 38.9941C21.1984 39.1736 21.065 39.4837 20.8919 39.757C20.6396 39.9345 20.4395 39.959 20.1122 40.0732C19.7369 40.0202 19.6493 40.0365 19.3324 39.757C19.1844 39.4531 18.9363 39.3429 19.0092 38.9941C19.176 38.633 19.1468 38.3596 19.3324 38.2311C19.5951 38.0496 19.8974 37.8089 20.1122 37.9149C20.4937 37.7905 20.7189 38.1108 20.8919 38.2311C21.1067 38.4474 21.2568 38.5453 21.2151 38.9941Z" fill="#F5F6E6"/>
<path d="M40.9914 38.9941C40.9748 39.1736 40.8413 39.4837 40.6683 39.757C40.416 39.9345 40.2158 39.959 39.8885 40.0732C39.5132 40.0202 39.4257 40.0365 39.1088 39.757C38.9607 39.4531 38.7126 39.3429 38.7856 38.9941C38.9524 38.633 38.9232 38.3596 39.1088 38.2311C39.3715 38.0496 39.6738 37.8089 39.8885 37.9149C40.2701 37.7905 40.4952 38.1108 40.6683 38.2311C40.883 38.4474 41.0331 38.5453 40.9914 38.9941Z" fill="#F5F6E6"/>
<path d="M21.2151 17.7236C21.1984 17.9031 21.065 18.2131 20.8919 18.4865C20.6396 18.664 20.4395 18.6885 20.1122 18.8027C19.7369 18.7496 19.6493 18.766 19.3324 18.4865C19.1844 18.1825 18.9363 18.0724 19.0092 17.7236C19.176 17.3625 19.1468 17.0891 19.3324 16.9606C19.5951 16.7791 19.8974 16.5384 20.1122 16.6444C20.4937 16.52 20.7189 16.8403 20.8919 16.9606C21.1067 17.1769 21.2568 17.2748 21.2151 17.7236Z" fill="#F5F6E6"/>
<path d="M40.9914 17.7236C40.9748 17.9031 40.8413 18.2131 40.6683 18.4865C40.416 18.664 40.2158 18.6885 39.8885 18.8027C39.5132 18.7496 39.4257 18.766 39.1088 18.4865C38.9607 18.1825 38.7126 18.0724 38.7856 17.7236C38.9524 17.3625 38.9232 17.0891 39.1088 16.9606C39.3715 16.7791 39.6738 16.5384 39.8885 16.6444C40.2701 16.52 40.4952 16.8403 40.6683 16.9606C40.883 17.1769 41.0331 17.2748 40.9914 17.7236Z" fill="#F5F6E6"/>
<path d="M21.2151 28.3578C21.1984 28.5374 21.065 28.8474 20.8919 29.1208C20.6396 29.2982 20.4395 29.3227 20.1122 29.437C19.7369 29.3839 19.6493 29.4002 19.3324 29.1208C19.1844 28.8168 18.9363 28.7067 19.0092 28.3578C19.176 27.9968 19.1468 27.7234 19.3324 27.5949C19.5951 27.4133 19.8974 27.1726 20.1122 27.2787C20.4937 27.1543 20.7189 27.4745 20.8919 27.5949C21.1067 27.8111 21.2568 27.909 21.2151 28.3578Z" fill="#F5F6E6"/>
<path d="M40.9914 28.3578C40.9748 28.5374 40.8413 28.8474 40.6683 29.1208C40.416 29.2982 40.2158 29.3227 39.8885 29.437C39.5132 29.3839 39.4257 29.4002 39.1088 29.1208C38.9607 28.8168 38.7126 28.7067 38.7856 28.3578C38.9524 27.9968 38.9232 27.7234 39.1088 27.5949C39.3715 27.4133 39.6738 27.1726 39.8885 27.2787C40.2701 27.1543 40.4952 27.4745 40.6683 27.5949C40.883 27.8111 41.0331 27.909 40.9914 28.3578Z" fill="#F5F6E6"/>
</g>
<defs>
<clipPath id="clip0_5170_1801">
<rect width="22" height="38" fill="white" transform="translate(19 11)"/>
</clipPath>
</defs>
</svg>
