<svg width="167" height="69" viewBox="0 0 167 69" fill="none" xmlns="http://www.w3.org/2000/svg">
<path d="M167 68.5488H0V0H167V68.5488ZM124.151 23.2207C121.193 22.1892 118.192 22.1495 115.199 22.957C112.024 23.8145 109.679 25.6554 108.834 29.0146C108.362 30.8942 108.343 32.7793 109.105 34.5938C109.954 36.6069 111.58 37.7988 113.536 38.5801C115.384 39.3182 117.316 39.6464 119.299 39.7344C120.253 39.7758 121.231 39.754 122.098 40.2646C123.005 40.7982 123.044 41.8633 122.182 42.4561C121.99 42.5879 121.771 42.6869 121.553 42.7715C120.649 43.1198 119.699 43.1693 118.763 43.0391C117.234 42.831 116.072 42.3072 115.785 40.6475C113.252 40.6475 110.713 40.6474 108.154 40.6465C108.154 40.8554 108.144 41.0241 108.156 41.1924C108.182 41.5127 108.208 41.8317 108.255 42.1504C108.716 45.4217 110.382 47.7802 113.445 49.0967C115.05 49.7849 116.732 50.0689 118.458 50.1416C120.752 50.2406 123.005 50.0117 125.164 49.1797C127.351 48.3349 129.031 46.9317 129.9 44.6895C130.422 43.3435 130.545 41.9348 130.444 40.5C130.288 38.2873 129.374 36.4656 127.641 35.0898C125.523 33.4106 123.02 32.8233 120.399 32.584C119.331 32.485 118.264 32.3594 117.205 32.1895C116.687 32.1049 116.33 31.7378 116.268 31.1865C116.203 30.6234 116.406 30.1481 116.879 29.8242C117.114 29.6662 117.373 29.5191 117.643 29.4463C118.845 29.1224 120.048 29.1915 121.229 29.5518C121.839 29.7353 122.284 30.1476 122.497 30.7666C122.573 30.983 122.596 31.2186 122.646 31.4629H129.917C129.925 31.3176 129.934 31.2352 129.934 31.1523C129.933 27.5522 127.663 24.4458 124.151 23.2207ZM136.882 18.3213C136.882 20.0301 136.882 21.6659 136.881 23.3604H133.479V29.9648H136.901V30.6299C136.901 33.733 136.878 36.837 136.914 39.9385C136.929 41.0528 137.002 42.1776 137.193 43.2725C137.742 46.405 139.454 48.5904 142.57 49.4639C145.191 50.1986 147.841 49.9488 150.524 49.5244C150.443 47.4072 150.362 45.3073 150.284 43.2383C149.52 43.3025 148.852 43.3888 148.182 43.4082C147.262 43.4361 146.355 43.3152 145.598 42.7295C144.78 42.0936 144.551 41.2023 144.555 40.208C144.565 36.9509 144.56 33.6945 144.56 30.4375V29.9424H150V23.3076H144.544V17.6338C141.993 17.8629 139.481 18.0888 136.882 18.3213ZM16.4727 49.4541H24.0498V47.1074C24.8896 47.6951 25.6876 48.3916 26.6006 48.8643C28.8932 50.053 31.364 50.0359 33.8047 49.5303C37.5533 48.7574 40.2934 46.5672 41.9775 43.1191C43.8467 39.2896 44.0816 35.2907 42.9219 31.2168C42.1273 28.4224 40.583 26.1369 38.1045 24.5566C35.6184 22.9696 32.8613 22.4846 29.9805 22.6562C28.0784 22.7679 26.3263 23.3953 24.8408 24.6484C24.5817 24.8657 24.337 25.1027 24.0029 25.4062V14.7031H16.4736C16.4736 26.3143 16.4735 37.8852 16.4727 49.4541ZM95.7725 23.6826C95.7725 28.1596 95.7869 32.6383 95.7588 37.1152C95.7535 37.9006 95.6395 38.7058 95.4453 39.4668C94.9848 41.2652 93.3319 42.6478 91.5039 42.8643C89.6039 43.0874 87.7419 41.7243 87.2832 39.6934C87.094 38.8597 86.9855 37.9912 86.9805 37.1357C86.9501 32.6425 86.9658 28.1482 86.9658 23.6533V23.0674H79.2783C79.2691 23.2084 79.2549 23.3235 79.2549 23.4375C79.2549 28.5438 79.2243 33.6493 79.2715 38.7539C79.2925 40.9284 79.6387 43.0674 80.5752 45.0635C81.575 47.1933 83.1734 48.6402 85.4297 49.3438C86.9865 49.8308 88.5852 49.8881 90.1846 49.7705C92.0661 49.6285 93.8163 49.0703 95.2549 47.7656C95.5554 47.4925 95.8242 47.1833 96.2012 46.7969V49.4443H103.848V23.0664H95.7715C95.7715 23.2878 95.7716 23.4857 95.7725 23.6826ZM62.3555 22.9062C60.3719 22.4142 58.3993 22.5758 56.4502 23.04C52.6873 23.9355 49.9977 26.1827 48.5215 29.7695C46.9099 33.686 46.9176 37.6779 48.3154 41.6611C49.1553 44.0455 50.5561 46.046 52.6104 47.5469C54.8919 49.2151 57.4756 49.8551 60.2646 49.8027C62.0531 49.7707 63.7409 49.3787 65.2246 48.3428C65.796 47.9429 66.2955 47.4386 66.8887 46.9297V49.4434H74.4502V23.0674H66.8799V25.6523C65.5998 24.2633 64.1295 23.3451 62.3555 22.9062ZM28.5684 29.9199C31.6858 29.0913 34.6649 30.5761 35.6074 33.9795C35.8001 34.6745 35.8687 35.4024 35.9941 36.1143C35.8721 38.1122 35.2732 39.8759 33.7266 41.168C31.0746 43.379 27.1169 42.6931 25.1104 39.7305C22.6823 36.1412 24.4523 31.0169 28.5684 29.9199ZM57.9473 30.4473C60.8131 28.8162 64.7545 29.813 66.3359 33.4844C67.9027 37.1278 65.9137 41.3472 62.1543 42.3018C59.4948 42.9781 56.6986 41.5724 55.6289 39.0459C55.2216 38.0828 54.9917 37.0937 55.0068 36.042C55.1129 33.7167 55.813 31.664 57.9473 30.4473Z" fill="#F5F6E6"/>
</svg>
