<svg width="193" height="51" viewBox="0 0 193 51" fill="none" xmlns="http://www.w3.org/2000/svg">
<path d="M57.9828 43.4342C58.2555 43.7046 58.3464 45.1469 57.9828 46.7694C58.2555 48.482 58.4373 49.7439 58.0737 50.1045H57.8919C57.4375 50.1045 55.8013 50.1045 53.8017 50.1045C51.802 50.1946 50.3476 50.1045 49.6205 50.1045C48.8933 50.0144 48.7115 50.2848 47.7117 50.1045C46.9845 49.9242 44.8031 50.1045 42.9852 50.1045C41.8944 50.1045 41.0764 50.2848 39.7129 50.1045C38.804 49.7439 38.0768 50.2848 36.168 50.1045C34.8046 50.2848 33.623 50.2848 32.3504 50.1045C30.0781 50.0144 29.8963 50.2848 28.3511 50.1045C26.8058 50.1045 25.8969 50.9157 24.3517 50.1045C22.8065 49.3834 21.7157 50.465 20.5341 50.1045C19.4433 49.9242 18.2617 49.4735 16.9892 50.1045C15.8984 50.1045 14.3532 50.1045 13.8079 50.1045C11.8082 49.5637 10.5356 50.1045 8.99042 50.1045C7.71789 50.1045 7.26341 50.1045 7.17252 50.1045C6.89983 49.9242 5.80909 50.465 3.8094 50.1045C2.53687 50.2848 1.08255 50.2848 0.628079 50.1946C0.537184 50.1946 0.446289 50.1946 0.446289 50.0144C0.446289 49.6538 0.446289 48.2116 0.446289 46.6792C0.537184 45.1469 0.446289 43.9751 0.446289 43.5244C0.446289 43.0737 0.537184 43.3441 0.628079 43.3441C1.71882 43.5244 6.80894 42.8934 6.80894 43.3441C7.17252 43.6145 8.26326 40.6399 9.80847 37.9358C10.6265 35.8626 11.8082 34.1499 12.808 32.4373C12.9898 31.3556 14.1714 30.0035 14.535 29.3726C14.9895 28.8317 14.9895 27.2092 16.262 26.2177C16.9892 25.136 17.2619 24.2347 17.989 23.0629C17.989 23.0629 17.989 23.0629 18.0799 23.0629C19.1707 22.6122 19.8069 20.8094 19.716 19.9981C19.716 19.9981 19.716 19.9981 19.716 19.908C20.9886 18.1052 21.8975 15.9419 22.7156 14.4997C24.3517 11.8856 25.3515 9.4519 25.6242 9.18149C25.6242 9.18149 25.6242 9.09135 25.6242 9.00121C25.5333 8.46037 24.7153 6.56746 23.5336 4.94496C22.8974 3.23233 21.9884 1.88024 21.6248 1.15913C21.6248 1.06899 21.6248 0.888717 21.8066 0.888717C22.352 0.888717 23.5336 0.70844 25.5333 0.888717C26.8967 1.15913 28.5328 0.888717 29.26 0.888717C29.4418 0.888717 29.4418 0.978856 29.4418 1.15913C29.3509 1.7901 30.3507 3.05205 31.896 5.30552C31.896 6.83788 33.623 8.2801 34.3501 9.99273C34.7137 11.1645 34.6228 11.435 35.7136 12.6969C35.7136 12.6969 35.7136 12.6969 35.7136 12.787C35.7136 13.9588 36.5316 15.0405 37.2588 15.6715C37.895 16.3926 38.2586 17.8348 38.8949 18.8263C38.8949 20.0883 40.0765 20.8995 40.531 21.9812C41.1673 23.6938 42.1671 23.8741 42.1671 25.136C42.5307 26.7585 43.2578 27.5698 43.8032 28.2909C44.5304 29.1923 45.0757 30.0035 45.3484 31.2655C45.5302 32.257 45.5302 33.1584 46.7118 34.0598C46.7118 34.0598 46.7118 34.0598 46.7118 34.1499C47.2572 36.133 48.8024 36.5837 49.166 38.8371C50.6203 41.361 51.1657 42.3526 51.3475 42.8934C51.3475 42.9835 51.5293 43.0737 51.6202 42.9835C51.9838 42.8934 53.0745 42.8934 54.7106 43.1638C55.9831 42.8033 57.1648 43.2539 57.8919 43.1638C57.8919 43.1638 57.9828 43.1638 58.0737 43.1638M43.1669 43.3441C43.8941 43.0737 42.5307 42.3526 42.0762 41.361C41.2581 39.8287 40.0765 39.1076 39.5311 36.2231C38.9858 35.2316 38.5313 33.9697 37.895 32.9781C36.7134 32.257 36.8952 30.5444 36.168 29.5528C35.8044 28.5613 34.9864 27.5698 34.441 26.1276C33.3503 24.9558 33.1685 23.153 32.8049 22.8826C32.5322 21.1699 30.5325 19.4573 30.169 17.7447C29.1691 16.3926 29.4418 15.7616 29.0782 15.6715C29.0782 15.6715 27.9875 15.8518 27.9875 17.7447C27.3512 18.7362 26.3514 20.6291 25.2606 22.8826C24.897 23.5135 24.2608 25.0459 23.5336 26.1276C22.8065 27.3895 22.0793 28.6515 21.7157 29.5528C20.4432 30.9049 20.1705 32.3472 19.8978 32.9781C19.8978 34.6006 18.898 35.4119 18.1708 36.2231C17.0801 38.0259 16.1711 39.9188 15.444 41.361C14.8986 42.1723 14.4441 42.8033 14.3532 43.2539C14.3532 43.2539 14.3532 43.4342 14.4441 43.4342C14.8077 43.4342 15.5349 43.4342 16.4438 43.4342C17.8072 43.6145 19.5342 43.4342 21.8066 43.4342C22.6247 43.0737 24.079 43.4342 25.1697 43.4342C26.0787 43.8849 28.2602 44.3356 28.8055 43.4342C29.7145 43.4342 30.7143 44.1553 32.4413 43.4342C33.623 43.7046 34.8046 44.0652 35.8044 43.4342C38.0768 42.8934 40.0765 43.7046 41.1673 43.4342C42.8034 43.7046 42.4398 43.2539 43.3487 43.4342" fill="#F5F6E6"/>
<path d="M81.8877 32.0759C83.4329 32.5266 84.6145 34.059 86.0689 34.4196C87.1596 34.69 88.1594 36.2223 89.3411 37.5744C90.3409 38.6561 90.7954 40.2786 91.4317 41.4504C91.977 42.532 92.0679 43.9743 92.1588 45.8672C92.1588 46.3179 92.1588 48.3009 92.1588 49.3826C92.1588 49.7431 91.8861 50.0136 91.5226 50.0136C90.25 50.0136 87.4323 49.8333 86.3415 50.0136C86.0688 50.0136 85.7053 49.8333 85.6144 49.5629C85.5235 48.9319 85.4326 47.9404 85.6144 47.5798C85.6144 47.3995 85.7962 47.3094 85.7962 47.1291C85.7962 46.2277 85.7962 44.9658 85.2508 43.9743C85.2508 43.2532 84.16 42.0813 83.6147 41.18C83.6147 41.18 83.6147 41.18 83.5238 41.0898C82.9784 40.6391 81.2514 39.287 80.7969 38.9265C79.1608 38.0251 78.3428 37.6646 76.9793 37.3941C75.525 36.7632 74.5252 36.0421 72.071 36.4026C72.071 36.4026 71.9801 36.4026 71.8892 36.4026C69.8895 36.1322 68.4352 35.6815 65.981 36.0421H65.7993C65.3448 35.8618 62.2544 36.0421 61.2545 36.0421C61.0727 36.0421 60.9818 35.9519 60.9818 35.7716C60.9818 34.69 60.4364 31.5351 60.9818 31.1746C61.6181 30.4534 62.1635 29.8225 64.3449 27.3887C64.9812 26.5775 66.0719 25.1353 67.708 23.6029C68.9806 21.8903 70.7985 20.6283 71.6165 19.1861C72.98 17.4735 74.5252 16.1214 75.525 14.7693C76.5249 13.7778 77.7974 12.2454 78.8881 10.9835C80.4334 9.36098 81.3423 8.18917 81.8877 7.64834C82.0695 7.46806 81.8877 7.19765 81.615 7.19765C80.6151 7.19765 78.4337 7.64834 75.9795 7.19765C74.0707 7.19765 71.8892 7.5582 70.1622 7.19765C68.1625 7.19765 66.5264 6.74695 64.3449 7.19765C64.3449 7.19765 64.3449 7.19765 64.254 7.19765C61.2545 7.19765 58.8003 7.19765 58.0732 7.19765C57.346 7.19765 57.346 9.45112 58.0732 10.8933C58.0732 10.9835 58.0732 11.0736 58.0732 11.2539C57.8005 12.5158 57.8914 13.7778 57.8914 14.4989C57.8914 14.7693 57.7096 14.9496 57.4369 14.9496C55.8917 14.9496 52.6195 14.7693 51.9832 14.9496C51.9832 14.9496 51.9832 14.9496 51.8923 14.9496C51.7105 14.7693 52.4377 14.2285 51.8923 12.7863C51.8014 11.8849 51.8923 8.73001 51.8923 7.91876C51.8923 6.3864 51.7105 4.85404 51.8923 3.05126C51.8923 2.33015 52.0741 1.87946 51.9832 1.5189C51.9832 1.15835 52.2559 0.887932 52.6195 0.887932C53.3466 0.887932 54.5283 0.887932 56.528 0.887932C58.0732 0.617516 59.5275 0.978071 61.4363 0.887932C63.0724 0.707655 64.8903 0.256961 67.2536 0.887932C67.2536 0.887932 67.2536 0.887932 67.3445 0.887932C68.617 1.06821 69.8895 0.527377 70.7985 0.887932C71.6165 1.33863 72.8891 1.24849 74.3434 0.887932C75.3432 1.24849 76.9793 0.617516 77.7974 0.887932C80.0698 0.0766836 82.433 1.5189 83.8874 0.887932C86.796 0.617516 88.7048 0.527377 89.432 0.707655C89.6138 0.707655 89.7955 0.978071 89.7955 1.15835C89.7955 1.69918 89.7955 2.69071 89.7955 4.13293C89.7047 5.03432 89.6138 6.02584 89.7955 7.10751C89.7955 7.28779 89.7955 7.46806 89.6138 7.64834C89.2502 7.91876 88.9775 8.27931 88.3412 9.09056C87.3414 9.90181 86.5233 11.344 84.6145 13.3271C84.4327 14.0482 82.3421 15.4003 82.2513 16.0312C81.9786 16.8425 80.706 17.9242 79.7971 18.8255C79.1608 19.2762 77.4338 20.8086 77.3429 21.6198C76.434 22.6114 76.3431 23.4226 75.0705 24.2339C75.0705 24.2339 74.8888 24.324 74.8888 24.4142C73.4344 26.3972 71.8892 27.3887 71.253 28.5605C70.4349 29.7323 69.8895 29.5521 69.7986 30.2732C70.0713 30.7239 71.253 30.5436 71.4347 30.2732C71.4347 30.2732 71.4347 30.183 71.6165 30.183C73.5253 30.0028 75.6159 30.6337 76.9793 30.6337C77.9792 30.7239 79.888 30.9041 81.9786 32.0759" fill="#F5F6E6"/>
<path d="M184.869 50.1941C184.596 49.473 184.869 48.3913 184.869 46.4984C184.778 45.1463 185.051 43.8843 184.869 42.983C184.869 42.8928 184.869 42.8027 184.778 42.7125C184.051 41.721 183.051 41.2703 180.688 38.9267C179.052 38.0253 177.507 36.1324 176.416 34.8705C175.507 33.6085 174.962 33.6987 173.962 32.5269C173.144 30.9945 171.78 31.1748 171.417 30.0931C170.69 29.1016 169.871 28.2903 168.872 27.7495C167.599 27.2087 167.235 26.0369 166.417 25.4059C165.236 23.8735 163.418 21.8004 162.145 21.3497C162.145 21.3497 162.145 21.3497 162.054 21.3497C159.964 19.0962 158.6 17.9244 158.055 17.5638C157.964 17.5638 157.782 17.5638 157.782 17.654C157.51 18.3751 157.51 19.637 157.873 22.6116C157.51 24.0538 157.873 26.5777 157.873 27.9298C158.237 29.1016 157.873 31.8959 157.873 33.9691C158.146 36.1324 157.692 37.2141 157.873 40.0985C157.873 42.352 157.873 43.4337 157.873 45.3266C157.873 45.3266 157.873 45.3266 157.873 45.4167C158.691 48.0307 158.6 50.7349 157.873 50.5546C157.237 49.7434 154.965 50.6448 154.328 50.5546C152.329 50.3743 151.692 50.4645 151.056 50.5546C150.874 50.5546 150.693 50.5546 150.693 50.2842C150.602 49.6532 151.329 48.9321 150.784 45.4167C150.693 43.2534 150.511 41.5407 150.784 39.8281C151.056 38.7464 150.965 37.3944 150.784 36.5831C149.965 34.4198 150.784 34.6001 150.784 33.1578C150.784 31.2649 150.511 29.1917 150.784 27.6594C150.874 25.5862 150.329 24.3242 150.784 22.1609C150.784 22.1609 150.784 22.1609 150.784 22.0708C150.602 19.9074 150.602 18.1948 150.784 16.7526C150.42 15.3104 150.602 13.5076 150.784 11.7048C150.965 9.90204 150.42 8.45982 150.784 7.37815C150.784 6.29648 151.602 5.21482 150.784 3.95288C150.42 2.6008 150.602 1.51913 150.784 1.06844C150.784 1.06844 150.874 0.888159 150.965 0.888159C151.511 0.707882 152.874 0.888159 154.328 0.888159C154.328 0.888159 154.328 0.888159 154.419 0.888159C156.146 0.437466 157.237 0.527604 157.964 0.888159C158.873 0.978298 157.964 2.6008 157.964 4.58385C158.055 7.55843 157.873 8.00912 157.964 8.27954C158.328 9.09079 159.6 10.1725 162.145 12.2456C163.418 13.2372 165.508 14.5893 166.417 16.3019C166.417 16.3019 166.417 16.3019 166.508 16.392C167.326 16.8427 168.144 17.654 168.872 18.6455C169.962 19.7272 170.508 20.3581 171.417 20.9891C172.053 21.9806 173.144 22.3412 173.871 23.3327C175.78 24.6848 176.961 26.0369 177.961 27.2087C177.961 27.2087 177.961 27.2087 177.961 27.2988C178.506 29.1016 180.597 29.2819 181.415 30.5438C182.869 31.6255 183.688 33.0677 184.233 33.5184C184.415 33.6987 184.687 33.5184 184.687 33.3381C184.687 32.4367 184.506 30.7241 184.687 28.5608C184.596 26.9383 184.778 25.3158 184.687 23.2426C184.869 21.4398 184.324 19.7272 184.687 17.2033C184.687 15.3104 185.233 13.147 184.687 11.0738C184.324 9.90204 184.506 6.47676 184.687 5.84579C184.778 3.50218 184.415 1.78955 184.415 1.06844C184.415 0.888159 184.596 0.707882 184.869 0.798021C185.415 0.978298 187.323 1.33885 188.141 0.798021C188.141 0.798021 188.323 0.798021 188.414 0.798021C190.141 1.24871 191.141 0.437466 191.686 0.707882C191.686 0.707882 191.777 0.798021 191.777 0.888159C191.777 1.51913 192.232 3.14163 191.777 5.84579V6.02607C192.323 8.1894 191.777 10.2626 191.777 11.4344C191.777 11.4344 191.777 11.4344 191.777 11.5245C192.232 13.0569 192.141 13.9583 191.777 14.5893C191.777 14.5893 191.777 14.6794 191.777 14.7695C192.05 16.0315 191.868 17.2033 191.777 18.1047C191.686 19.0061 191.595 20.5384 191.777 21.6201C191.777 21.6201 191.777 21.7102 191.777 21.8004C191.323 22.6116 191.504 24.144 191.777 25.3158C191.777 25.3158 191.777 25.496 191.777 25.5862C191.504 26.8481 191.777 27.9298 191.777 29.1917C191.595 30.3635 191.868 31.3551 191.777 32.7973C191.868 33.6085 191.959 34.3296 191.777 36.3127C191.686 37.6648 191.777 38.3859 191.777 39.5577C191.868 41.8112 191.868 43.8843 191.777 45.0562C191.777 45.0562 191.777 45.0562 191.777 45.1463C192.959 47.7603 192.504 49.9236 191.777 50.2842C191.414 50.3743 190.232 49.9236 188.323 50.2842C188.323 50.2842 188.232 50.2842 188.141 50.2842C186.96 49.8335 185.505 50.825 184.687 50.2842" fill="#F5F6E6"/>
<path d="M129.518 26.3076C128.518 26.3076 128.154 25.4964 126.427 26.7583C125.427 27.1189 123.973 27.84 122.064 28.2006C122.064 28.2006 122.064 28.2006 121.973 28.2006C119.519 29.1921 118.337 29.8231 116.247 30.0935C114.611 30.9047 112.884 30.7244 111.066 30.7244C109.066 30.454 107.43 30.9047 105.703 30.0033H105.521C103.976 30.0033 101.613 28.8315 100.158 27.7499C99.7948 27.5696 100.431 26.2175 100.158 24.3246C100.431 22.9725 99.9766 21.7106 100.068 21.1697C100.068 21.0796 100.249 20.9895 100.34 21.0796C102.431 22.6119 102.885 23.2429 105.249 23.6035C107.43 23.8739 109.339 24.4147 110.884 24.6851H111.066C112.338 24.6851 112.702 24.3246 113.974 24.2344C113.974 24.2344 114.065 24.2344 114.156 24.2344C115.792 23.5133 116.974 23.7838 118.428 22.8824C118.428 22.8824 118.428 22.8824 118.519 22.8824C121.337 21.8908 122.519 21.1697 124.246 20.9894C125.791 20.8092 127.881 20.2683 129.427 20.3585C130.881 20.1782 133.608 20.3585 134.88 21.0796C136.335 21.7106 137.88 22.2514 140.334 23.3331C141.607 23.6936 140.243 24.7753 140.334 26.7583C140.334 27.6597 140.334 28.5611 140.334 29.2822C140.334 29.7329 139.88 29.9132 139.516 29.7329C138.243 29.0118 136.516 28.6512 135.062 27.5696C134.335 26.6682 131.608 26.3076 129.336 26.4879" fill="#F5F6E6"/>
<path d="M129.516 6.83751C127.789 7.10792 128.062 6.83751 126.426 7.2882C125.335 7.46848 123.88 8.27973 122.063 8.73042C119.608 9.81209 117.881 10.8036 116.245 10.6233C114.337 10.4431 112.428 11.3444 111.064 11.2543C109.337 11.074 108.247 10.3529 105.611 10.5332C103.793 9.81209 102.702 9.27125 100.157 8.36987C99.248 8.46 100.157 7.2882 100.157 4.94459C100.157 2.78126 100.066 2.60098 100.157 1.78974C100.157 1.6996 100.339 1.60946 100.43 1.6996C102.066 3.05168 103.974 3.32209 105.338 4.22348C107.156 5.03473 108.701 5.30515 111.064 5.30515C112.61 5.30515 112.7 5.6657 114.155 4.85445C114.7 4.67418 116.972 4.31362 118.518 3.41223C120.517 2.15029 122.972 1.78974 124.335 1.51932C125.971 0.888348 128.062 1.06863 129.516 0.888348C130.97 0.70807 133.243 1.2489 134.97 1.60946C136.788 1.60946 139.333 3.23196 140.332 3.77279C140.423 3.77279 140.514 3.95307 140.514 4.0432C140.514 4.4939 140.514 5.75584 140.514 7.2882C140.696 8.18959 140.514 9.45153 140.514 10.0825C140.514 10.3529 140.242 10.4431 140.06 10.2628C138.515 9.09097 136.969 8.09945 135.424 7.91917C133.879 7.46848 131.425 6.47695 129.698 6.83751" fill="#F5F6E6"/>
<path d="M110.975 44.1546C112.338 44.5152 113.065 44.3349 113.974 43.7941C113.974 43.7941 114.065 43.7941 114.156 43.7941C115.338 43.7941 116.61 43.073 118.428 42.3518C120.882 40.9998 123.427 40.9096 124.245 40.4589C125.427 39.6477 127.245 40.1885 129.426 39.828C132.426 39.5575 132.335 39.828 134.88 40.5491C136.153 41.0899 139.152 41.7209 140.334 42.8025C140.879 42.6223 140.243 45.1461 140.334 46.2278C140.334 47.3095 140.243 48.2109 140.243 48.7517C140.243 49.0221 139.879 49.1123 139.698 48.932C138.243 47.7602 136.698 47.67 135.244 46.8588C133.335 46.0475 132.608 45.056 129.608 45.7771C129.608 45.7771 129.608 45.7771 129.517 45.7771C128.608 45.7771 127.427 45.5067 126.427 46.2278C125.063 46.4982 124.427 47.1292 122.064 47.67C119.337 47.8503 118.246 49.0221 116.338 49.5629C115.065 49.7432 113.338 49.7432 111.247 50.1939C110.157 50.5545 108.066 50.4643 105.794 49.4728C104.521 48.5714 102.521 48.2109 100.885 47.5799C100.704 47.5799 100.704 47.3095 100.704 47.1292C100.794 46.7686 100.431 45.687 100.34 43.7941C100.067 43.1631 100.158 41.7209 100.249 40.9096C100.249 40.6392 100.522 40.5491 100.794 40.7293C102.158 41.6307 103.976 42.0814 105.521 43.073C105.521 43.073 105.521 43.073 105.703 43.073C107.793 43.2532 110.157 43.8842 111.338 44.1546" fill="#F5F6E6"/>
</svg>
