<svg width="248" height="20" viewBox="0 0 248 20" fill="none" xmlns="http://www.w3.org/2000/svg">
<g clip-path="url(#clip0_5170_1662)">
<path d="M18.9509 0.498535H21.207V19.4459H18.9509V10.7617H2.40646V19.4459H0.150391V0.498535H2.40646V8.78625H18.9509V0.498535Z" fill="#F5F6E6"/>
<path d="M40.7393 0.102051C42.1164 0.102051 43.2795 0.189769 44.222 0.368717C45.1646 0.544155 45.9433 0.814331 46.555 1.17223C47.1666 1.53012 47.6346 1.97924 47.9654 2.5231C48.2963 3.06696 48.537 3.70205 48.6874 4.43538C48.8411 5.16872 48.9314 5.99328 48.9581 6.91609C48.9848 7.83538 48.9982 8.85644 48.9982 9.97573C48.9982 11.095 48.9848 12.1126 48.9581 13.0354C48.9314 13.9547 48.8411 14.7828 48.6874 15.5161C48.5336 16.2494 48.293 16.8845 47.9654 17.4284C47.6379 17.9722 47.1666 18.4213 46.555 18.7792C45.9433 19.1371 45.1679 19.4038 44.222 19.5828C43.2795 19.7582 42.1164 19.8494 40.7393 19.8494H33.9478C32.5674 19.8494 31.4076 19.7617 30.4651 19.5828C29.5225 19.4073 28.7438 19.1371 28.1321 18.7792C27.5205 18.4213 27.0492 17.9722 26.715 17.4284C26.3807 16.8845 26.1401 16.2494 25.9864 15.5161C25.8326 14.7828 25.7457 13.9582 25.7223 13.0354C25.6989 12.1161 25.6855 11.095 25.6855 9.97573C25.6855 8.85644 25.6989 7.83889 25.7223 6.91609C25.7457 5.99679 25.8326 5.16872 25.9864 4.43538C26.1401 3.70205 26.3807 3.06696 26.715 2.5231C27.0492 1.97924 27.5205 1.53012 28.1321 1.17223C28.7438 0.814331 29.5192 0.547664 30.4651 0.368717C31.4076 0.193278 32.5707 0.102051 33.9478 0.102051H40.7393ZM40.7393 17.867C41.7354 17.867 42.5743 17.8354 43.2595 17.7757C43.9446 17.7126 44.5095 17.5898 44.9574 17.4003C45.4052 17.2108 45.7495 16.9406 45.9901 16.5863C46.2341 16.2319 46.4079 15.7652 46.5182 15.1792C46.6285 14.5968 46.692 13.8775 46.7121 13.0284C46.7321 12.1757 46.7422 11.1582 46.7422 9.97573C46.7422 8.79328 46.7321 7.77223 46.7121 6.9231C46.692 6.07047 46.6285 5.35468 46.5182 4.77223C46.4079 4.18977 46.2308 3.71959 45.9901 3.36521C45.7461 3.01082 45.4052 2.74065 44.9607 2.55117C44.5195 2.3617 43.9547 2.23538 43.2695 2.17573C42.5843 2.11258 41.7387 2.08451 40.736 2.08451H33.9444C32.9417 2.08451 32.0961 2.11609 31.4109 2.17573C30.7258 2.23889 30.1609 2.3617 29.713 2.55117C29.2652 2.74065 28.9209 3.01082 28.6803 3.36521C28.4363 3.71959 28.2625 4.18626 28.1522 4.77223C28.0419 5.35468 27.9784 6.07398 27.965 6.9231C27.9483 7.77573 27.9416 8.79328 27.9416 9.97573C27.9416 11.1582 27.9516 12.1792 27.9717 13.0284C27.9917 13.881 28.0552 14.5968 28.1655 15.1792C28.2758 15.7652 28.4496 16.2319 28.6869 16.5863C28.9243 16.9406 29.2685 17.2108 29.7164 17.4003C30.1643 17.5898 30.7291 17.7161 31.4143 17.7757C32.0995 17.8389 32.9451 17.867 33.9478 17.867H40.7393Z" fill="#F5F6E6"/>
<path d="M55.7365 2.07748V19.4459H53.4805V0.498535H57.1102L67.6252 17.0775L78.1501 0.498535H81.8701V19.4459H79.6141V2.33362L68.8986 19.4424H66.6191L55.7365 2.07748Z" fill="#F5F6E6"/>
<path d="M87.1045 19.4459V0.498535H105.153V2.47047H89.3606V8.78625H104.401V10.7582H89.3606V17.467H105.153V19.4389H87.1045V19.4459Z" fill="#F5F6E6"/>
<path d="M142.456 6.41781C142.456 5.43184 142.356 4.64939 142.152 4.07395C141.948 3.49851 141.61 3.06342 141.142 2.76517C140.674 2.46693 140.053 2.28096 139.287 2.19675C138.519 2.11605 137.573 2.07395 136.443 2.07395H130.403C129.401 2.07395 128.555 2.10552 127.87 2.16517C127.185 2.22833 126.62 2.35114 126.172 2.54061C125.724 2.73009 125.38 3.00026 125.139 3.35465C124.895 3.70903 124.721 4.1757 124.611 4.76167C124.501 5.34412 124.437 6.06342 124.424 6.91254C124.407 7.76517 124.401 8.78272 124.401 9.96517C124.401 11.1476 124.411 12.1687 124.431 13.0178C124.451 13.8704 124.514 14.5862 124.625 15.1687C124.735 15.7547 124.909 16.2213 125.146 16.5757C125.383 16.9301 125.727 17.2003 126.175 17.3897C126.623 17.5792 127.188 17.7055 127.873 17.7652C128.558 17.8283 129.404 17.8564 130.407 17.8564H136.46C137.335 17.8564 138.094 17.8318 138.729 17.7827C139.364 17.7336 139.906 17.6424 140.35 17.5125C140.798 17.3827 141.156 17.2003 141.43 16.9687C141.704 16.7371 141.918 16.4494 142.071 16.0985C142.225 15.7476 142.329 15.3301 142.382 14.8389C142.436 14.3511 142.466 13.7757 142.466 13.1196V11.9371H133.418V9.96517H144.722V13.1231C144.722 13.9125 144.675 14.6248 144.582 15.2634C144.488 15.902 144.321 16.4669 144.084 16.9652C143.843 17.4634 143.525 17.8915 143.124 18.2529C142.723 18.6143 142.218 18.9125 141.607 19.1476C140.995 19.3827 140.267 19.5546 139.421 19.6669C138.575 19.7792 137.589 19.8318 136.46 19.8318H130.407C129.026 19.8318 127.867 19.7441 126.924 19.5652C125.982 19.3897 125.203 19.1196 124.591 18.7617C123.979 18.4038 123.508 17.9546 123.174 17.4108C122.84 16.8669 122.599 16.2318 122.445 15.4985C122.292 14.7652 122.205 13.9406 122.181 13.0178C122.158 12.0985 122.145 11.0775 122.145 9.95816C122.145 8.83886 122.158 7.82131 122.181 6.89851C122.205 5.97921 122.292 5.15114 122.445 4.41781C122.599 3.68447 122.84 3.04938 123.174 2.50553C123.508 1.96167 123.979 1.51254 124.591 1.15465C125.203 0.796754 125.978 0.530087 126.924 0.351139C127.867 0.175701 129.03 0.0844727 130.407 0.0844727H136.446C137.576 0.0844727 138.562 0.140613 139.408 0.249385C140.253 0.358157 140.982 0.530087 141.593 0.754648C142.205 0.982718 142.713 1.26693 143.114 1.61079C143.519 1.95465 143.84 2.36167 144.077 2.83184C144.314 3.30202 144.481 3.83184 144.575 4.42482C144.668 5.01781 144.715 5.67395 144.715 6.39675H142.456V6.41781Z" fill="#F5F6E6"/>
<path d="M169.874 19.4461H167.618V15.8917C167.618 15.3163 167.608 14.8215 167.588 14.404C167.567 13.9899 167.501 13.6321 167.387 13.3373C167.273 13.0426 167.096 12.804 166.852 12.6215C166.608 12.4391 166.264 12.3022 165.819 12.2005C165.375 12.0987 164.807 12.0356 164.122 11.997C163.436 11.9584 162.591 11.9408 161.588 11.9408H151.447V19.4391H149.191V0.491699H161.962C163.339 0.491699 164.503 0.544331 165.445 0.646085C166.388 0.74784 167.17 0.902226 167.785 1.10924C168.4 1.31626 168.874 1.56889 169.205 1.87416C169.539 2.17942 169.78 2.53731 169.934 2.94784C170.088 3.35837 170.178 3.81802 170.205 4.3303C170.231 4.83907 170.245 5.40398 170.245 6.02152C170.245 6.811 170.191 7.50223 170.088 8.09872C169.981 8.69521 169.803 9.20398 169.553 9.62152C169.302 10.0426 168.968 10.3759 168.553 10.6285C168.139 10.8812 167.618 11.0531 166.989 11.1513C167.618 11.2496 168.119 11.4215 168.493 11.6706C168.868 11.9198 169.158 12.2391 169.362 12.6321C169.566 13.025 169.7 13.4952 169.767 14.0391C169.834 14.5829 169.867 15.197 169.867 15.8882V19.4461H169.874ZM151.451 9.9724H161.966C162.968 9.9724 163.811 9.95486 164.499 9.91626C165.184 9.87766 165.749 9.811 166.197 9.71275C166.645 9.61451 166.989 9.47416 167.23 9.2917C167.474 9.10924 167.651 8.87065 167.765 8.57591C167.878 8.28117 167.945 7.92328 167.965 7.50924C167.985 7.09521 167.995 6.59696 167.995 6.02152C167.995 5.48819 167.985 5.02503 167.965 4.63907C167.945 4.2531 167.878 3.92679 167.765 3.66363C167.651 3.40047 167.474 3.18995 167.23 3.03556C166.986 2.88117 166.642 2.75837 166.197 2.67065C165.753 2.58293 165.184 2.5303 164.499 2.50573C163.814 2.48117 162.968 2.46714 161.966 2.46714H151.451V9.9724Z" fill="#F5F6E6"/>
<path d="M189.031 0.102051C190.408 0.102051 191.571 0.189769 192.514 0.368717C193.457 0.544155 194.235 0.814331 194.847 1.17223C195.459 1.53012 195.927 1.97924 196.257 2.5231C196.588 3.06696 196.829 3.70205 196.979 4.43538C197.133 5.16872 197.223 5.99328 197.25 6.91609C197.277 7.83538 197.29 8.85644 197.29 9.97573C197.29 11.095 197.277 12.1126 197.25 13.0354C197.223 13.9547 197.133 14.7828 196.979 15.5161C196.826 16.2494 196.585 16.8845 196.257 17.4284C195.93 17.9722 195.459 18.4213 194.847 18.7792C194.235 19.1371 193.46 19.4038 192.514 19.5828C191.571 19.7582 190.408 19.8494 189.031 19.8494H182.24C180.859 19.8494 179.7 19.7617 178.757 19.5828C177.815 19.4073 177.036 19.1371 176.424 18.7792C175.812 18.4213 175.341 17.9722 175.007 17.4284C174.673 16.8845 174.432 16.2494 174.278 15.5161C174.125 14.7828 174.038 13.9582 174.014 13.0354C173.991 12.1161 173.978 11.095 173.978 9.97573C173.978 8.85644 173.991 7.83889 174.014 6.91609C174.038 5.99679 174.125 5.16872 174.278 4.43538C174.432 3.70205 174.673 3.06696 175.007 2.5231C175.341 1.97924 175.812 1.53012 176.424 1.17223C177.036 0.814331 177.811 0.547664 178.757 0.368717C179.7 0.193278 180.863 0.102051 182.24 0.102051H189.031ZM189.031 17.867C190.027 17.867 190.866 17.8354 191.551 17.7757C192.237 17.7126 192.801 17.5898 193.249 17.4003C193.697 17.2108 194.041 16.9406 194.282 16.5863C194.526 16.2319 194.7 15.7652 194.81 15.1792C194.92 14.5968 194.984 13.8775 195.004 13.0284C195.024 12.1757 195.034 11.1582 195.034 9.97573C195.034 8.79328 195.024 7.77223 195.004 6.9231C194.984 6.07047 194.92 5.35468 194.81 4.77223C194.7 4.18977 194.523 3.71959 194.282 3.36521C194.038 3.01082 193.697 2.74065 193.253 2.55117C192.811 2.3617 192.247 2.23538 191.561 2.17573C190.876 2.11258 190.031 2.08451 189.028 2.08451H182.236C181.234 2.08451 180.388 2.11609 179.703 2.17573C179.018 2.23889 178.453 2.3617 178.005 2.55117C177.557 2.74065 177.213 3.01082 176.972 3.36521C176.728 3.71959 176.554 4.18626 176.444 4.77223C176.334 5.35468 176.27 6.07398 176.257 6.9231C176.24 7.77573 176.234 8.79328 176.234 9.97573C176.234 11.1582 176.244 12.1792 176.264 13.0284C176.284 13.881 176.347 14.5968 176.458 15.1792C176.568 15.7652 176.742 16.2319 176.979 16.5863C177.216 16.9406 177.561 17.2108 178.008 17.4003C178.456 17.5898 179.021 17.7161 179.706 17.7757C180.391 17.8389 181.237 17.867 182.24 17.867H189.031Z" fill="#F5F6E6"/>
<path d="M222.843 0.498535V9.97222C222.843 11.0915 222.829 12.1091 222.803 13.0319C222.776 13.9512 222.686 14.7792 222.532 15.5126C222.378 16.2459 222.138 16.881 221.81 17.4249C221.482 17.9687 221.011 18.4178 220.4 18.7757C219.788 19.1336 219.013 19.4003 218.067 19.5792C217.124 19.7547 215.961 19.8459 214.584 19.8459H209.296C207.916 19.8459 206.756 19.7582 205.814 19.5792C204.871 19.4038 204.092 19.1336 203.481 18.7757C202.869 18.4178 202.398 17.9687 202.064 17.4249C201.729 16.881 201.489 16.2459 201.335 15.5126C201.181 14.7792 201.094 13.9547 201.071 13.0319C201.048 12.1126 201.034 11.0915 201.034 9.97222V0.498535H203.29V9.97222C203.29 11.1582 203.3 12.1757 203.32 13.0249C203.34 13.8775 203.404 14.5933 203.514 15.1757C203.624 15.7617 203.798 16.2284 204.036 16.5827C204.273 16.9371 204.617 17.2073 205.065 17.3968C205.513 17.5863 206.078 17.7126 206.763 17.7722C207.448 17.8354 208.294 17.8634 209.296 17.8634H214.584C215.58 17.8634 216.422 17.8319 217.111 17.7722C217.799 17.7091 218.367 17.5863 218.809 17.3968C219.25 17.2073 219.594 16.9371 219.838 16.5827C220.082 16.2284 220.259 15.7617 220.373 15.1757C220.486 14.5933 220.55 13.874 220.567 13.0249C220.583 12.1722 220.59 11.1547 220.59 9.97222L220.577 0.498535H222.843Z" fill="#F5F6E6"/>
<path d="M227.324 0.498535H240.884C242.004 0.498535 242.95 0.551167 243.722 0.652921C244.494 0.754676 245.129 0.909062 245.63 1.11608C246.131 1.3231 246.516 1.57573 246.787 1.88099C247.057 2.18625 247.254 2.54415 247.381 2.95467C247.505 3.3652 247.579 3.82485 247.599 4.33713C247.619 4.8459 247.629 5.41082 247.629 6.02836C247.629 6.67046 247.615 7.26345 247.589 7.8038C247.562 8.34766 247.472 8.83889 247.318 9.27748C247.164 9.71608 246.924 10.1056 246.589 10.4354C246.255 10.7687 245.784 11.0459 245.169 11.267C244.554 11.488 243.775 11.6564 242.829 11.7722C241.887 11.888 240.724 11.9441 239.347 11.9441H229.584V19.4424H227.328V0.498535H227.324ZM229.58 9.97222H239.343C240.346 9.97222 241.188 9.95467 241.877 9.91608C242.562 9.87748 243.127 9.81082 243.575 9.71257C244.022 9.61432 244.367 9.47397 244.607 9.29152C244.851 9.10906 245.028 8.87046 245.142 8.57573C245.256 8.28099 245.323 7.9231 245.343 7.50906C245.363 7.09503 245.373 6.59678 245.373 6.02134C245.373 5.48801 245.363 5.02485 245.343 4.63889C245.323 4.25292 245.256 3.9266 245.142 3.66345C245.028 3.40029 244.851 3.18976 244.607 3.03538C244.363 2.88099 244.019 2.75818 243.575 2.67047C243.13 2.58275 242.562 2.53011 241.877 2.50555C241.191 2.48099 240.346 2.46696 239.343 2.46696H229.58V9.97222Z" fill="#F5F6E6"/>
</g>
<defs>
<clipPath id="clip0_5170_1662">
<rect width="248" height="20" fill="white"/>
</clipPath>
</defs>
</svg>
