<svg width="179" height="64" viewBox="0 0 179 64" fill="none" xmlns="http://www.w3.org/2000/svg">
<g clip-path="url(#clip0_5170_1637)">
<mask id="mask0_5170_1637" style="mask-type:luminance" maskUnits="userSpaceOnUse" x="0" y="0" width="179" height="64">
<path d="M178.901 0H0V63.9991H178.901V0Z" fill="white"/>
</mask>
<g mask="url(#mask0_5170_1637)">
<path d="M0 62.9254V36.4102H7.85518V45.9956H20.8352V36.4102H28.6903V62.9254H20.8352V52.6044H7.85518V62.9254H0Z" fill="#F5F6E6"/>
<path d="M50.4439 35.9814C54.2571 35.9814 57.39 36.6952 59.8428 38.1229C61.8086 39.2552 63.4127 41.0058 64.4441 43.1447C65.2728 44.9864 65.6895 47.0141 65.6606 49.0631V50.1308C65.6582 51.6944 65.419 53.2471 64.9527 54.7268C64.4771 56.2573 63.6985 57.6565 62.6715 58.8261C60.0421 61.8364 55.9663 63.3415 50.4439 63.3415H48.9568C45.1437 63.3415 42.0216 62.6051 39.5906 61.1322C37.5946 59.9932 35.9834 58.1965 34.9893 56.0007C34.1472 54.1767 33.719 52.1608 33.7401 50.1211V49.0534C33.7063 46.9999 34.1352 44.9682 34.9893 43.135C35.9957 40.9762 37.6064 39.2183 39.5906 38.1133C41.9998 36.6834 45.1219 35.9696 48.9568 35.9717L50.4439 35.9814ZM57.4782 49.347C57.4782 47.4935 57.0073 46.0087 56.0654 44.8929C54.7726 43.3748 52.6579 42.6147 49.7212 42.6125C46.8301 42.6125 44.7164 43.3726 43.3799 44.8929C42.4183 46.0087 41.9373 47.4935 41.9373 49.347V49.8082C41.9373 51.6402 42.4411 53.1378 43.4484 54.301C44.7849 55.8686 46.8768 56.6522 49.7241 56.6522C52.6609 56.6522 54.7756 55.8686 56.0683 54.301C57.0083 53.1592 57.4792 51.6616 57.4812 49.8082L57.4782 49.347Z" fill="#F5F6E6"/>
<path d="M77.8565 62.9254V43.1091H68.2285V36.4102H95.2949V43.1091H85.6789V62.9254H77.8565Z" fill="#F5F6E6"/>
<path d="M99.9102 36.4102H123.342V42.5027H107.697V46.3538H122.839V52.6592H107.697V56.765H123.538V62.9254H99.9102V36.4102Z" fill="#F5F6E6"/>
<path d="M128.163 36.4102H136.018V56.0102H147.142V62.9254H128.163V36.4102Z" fill="#F5F6E6"/>
<path d="M164.611 63.3865C160.8 63.3865 157.811 62.8642 155.64 61.8191C153.856 60.9591 152.586 59.7764 151.828 58.2712C151.274 57.0928 151.002 55.7815 151.04 54.459V54.1364H159.516C159.526 54.5426 159.612 54.9422 159.771 55.3103C159.929 55.6784 160.157 56.0068 160.438 56.2749C161.337 57.1542 162.824 57.594 164.9 57.594H165.096C167.22 57.594 168.72 57.2973 169.596 56.7038C169.905 56.5171 170.152 56.2308 170.304 55.8846C170.429 55.5453 170.491 55.1823 170.486 54.8169C170.491 54.4822 170.424 54.1506 170.29 53.8494C170.125 53.5419 169.885 53.2898 169.596 53.1205C168.852 52.6452 167.55 52.3959 165.688 52.3721L162.345 52.2497C158.312 52.1078 155.409 51.2638 153.636 49.7177C152.101 48.4125 151.334 46.6194 151.334 44.338V44.0155C151.334 41.5449 152.167 39.6677 153.832 38.384C155.891 36.8402 159.319 36.0684 164.118 36.0684H165.372C170.477 36.0684 174.059 36.9467 176.119 38.7033C177.608 39.9935 178.353 41.7996 178.356 44.1218V44.4057H170.001C169.942 44.0702 169.842 43.7448 169.704 43.4382C169.536 43.1104 169.299 42.8297 169.013 42.6188C168.18 41.9996 166.793 41.69 164.849 41.69H164.552C162.624 41.69 161.267 41.8921 160.477 42.2964C160.18 42.4338 159.925 42.6569 159.736 42.9414C159.587 43.2164 159.513 43.5319 159.522 43.8509C159.513 44.1733 159.594 44.4913 159.751 44.7638C159.911 45.0363 160.142 45.2509 160.414 45.3798C161.138 45.8571 162.353 46.1065 164.062 46.128L167.512 46.2377C171.74 46.3796 174.765 47.1634 176.583 48.5889C177.337 49.1814 177.922 49.9901 178.276 50.924C178.631 51.9411 178.804 53.023 178.785 54.1107V54.5396C178.826 55.9625 178.531 57.3732 177.931 58.639C177.162 60.0881 175.881 61.2041 174.084 61.9868C171.961 62.9156 169.102 63.3792 165.506 63.3769L164.611 63.3865Z" fill="#F5F6E6"/>
<path d="M27.1135 16.1521C26.2153 15.1565 24.8888 14.4803 23.1339 14.1233C24.548 13.8566 25.855 13.1339 26.8845 12.0494C27.3988 11.5051 27.8046 10.8521 28.0767 10.1309C28.3489 9.40972 28.4817 8.63563 28.4669 7.85654V7.53401C28.4669 5.46337 27.8958 3.87115 26.7537 2.75735C25.0921 1.15759 22.2317 0.356643 18.1728 0.354492H0.0234375V26.615L4.2559 26.0601C5.46942 25.8956 6.67997 25.7376 7.87862 25.6119V18.2581H16.1324C17.8455 18.2581 19.0472 18.6 19.7491 19.2902C20.1232 19.6778 20.3909 20.1702 20.5225 20.7126C20.6871 21.4374 20.7641 22.1822 20.7515 22.9284V24.4862C23.4284 24.3282 26.0815 24.2218 28.675 24.1636V20.7126C28.6632 18.8419 28.1427 17.3196 27.1135 16.1521ZM20.2726 9.19505C20.2726 10.0078 20.0704 10.6045 19.651 10.9819C19.1255 11.4829 18.2828 11.7323 17.1228 11.7301H7.87862V6.70511H17.1228C18.2591 6.70511 19.1038 6.94056 19.651 7.4179C19.8673 7.63246 20.0357 7.8976 20.1434 8.19322C20.251 8.48885 20.2953 8.80718 20.2726 9.12408V9.19505Z" fill="#F5F6E6"/>
<path d="M36.4805 0.354492V24.0443C39.1652 24.0443 41.7846 24.0831 44.3386 24.1605V0.354492H36.4805Z" fill="#F5F6E6"/>
<path d="M80.369 14.0173C79.3578 13.1335 78.0343 12.5433 76.3924 12.2304C76.9222 12.1509 77.4389 11.9902 77.9272 11.7531C78.4605 11.5039 78.9606 11.1785 79.4143 10.7855C79.9338 10.3175 80.3486 9.72777 80.6274 9.06069C80.906 8.3936 81.0415 7.6666 81.0234 6.9345V6.61197C81.0526 5.78643 80.9012 4.96511 80.5819 4.2151C80.2623 3.4651 79.7838 2.80767 79.1852 2.29651C77.6684 1.00639 75.3187 0.361328 72.0826 0.361328H52.9102V24.4866C57.3478 24.7059 61.5357 24.9865 65.4558 25.2638C68.6265 25.4897 72.853 25.7606 77.7576 26.0025C78.6532 25.6692 79.4835 25.1573 80.2055 24.493C81.6094 23.2029 82.3113 21.4214 82.3113 19.1487V18.7907C82.3113 16.7716 81.6629 15.1752 80.369 14.0173ZM60.7743 6.24428H70.292C71.2379 6.24428 71.9012 6.42812 72.2819 6.78936C72.4798 6.98523 72.6353 7.22624 72.7372 7.49503C72.8389 7.76383 72.8846 8.05375 72.8708 8.34395V8.41491C72.8708 9.81468 72.0172 10.521 70.304 10.521H60.7862L60.7743 6.24428ZM73.8255 18.3295C73.844 18.626 73.8037 18.9234 73.7071 19.2015C73.6107 19.4797 73.4605 19.7322 73.2664 19.9422C72.7875 20.4678 72.0083 20.7227 70.9315 20.7227H60.7743V16.0104H70.9315C72.0261 16.0104 72.8083 16.2233 73.2664 16.6555C73.4618 16.8487 73.6137 17.0878 73.7107 17.3544C73.8076 17.6211 73.847 17.9084 73.8255 18.194V18.3295Z" fill="#F5F6E6"/>
<path d="M107.887 0.354492H97.5278L86.624 26.386L94.384 26.6084L96.1449 22.2866H109.068L110.889 26.673L119.163 26.4471L107.887 0.354492ZM98.545 16.4488L102.557 6.54062L106.665 16.4488H98.545Z" fill="#F5F6E6"/>
<path d="M150.836 14.8848C150.483 13.9514 149.898 13.1429 149.145 12.5496C147.325 11.1284 144.302 10.3457 140.073 10.2016L136.619 10.0952C134.906 10.0662 133.693 9.8146 132.97 9.34047C132.697 9.21142 132.466 8.99638 132.307 8.72322C132.148 8.45005 132.068 8.13136 132.078 7.80846C132.067 7.49008 132.139 7.17483 132.286 6.89892C132.473 6.61227 132.731 6.38867 133.03 6.25387C133.823 5.84747 135.181 5.64536 137.104 5.6475H137.402C139.349 5.6475 140.737 5.95605 141.566 6.57317C141.853 6.78215 142.089 7.06317 142.256 7.3924C142.395 7.69887 142.495 8.02436 142.553 8.35998H150.911V8.06326C150.911 5.73673 150.164 3.93165 148.671 2.64798C146.619 0.882658 143.039 0 137.931 0H136.685C131.878 0 128.447 0.772998 126.391 2.31899C124.725 3.60912 123.892 5.48624 123.892 7.95037V8.2729C123.892 10.5564 124.66 12.3518 126.194 13.6592C127.967 15.203 130.871 16.0459 134.906 16.1877L138.261 16.2943C140.123 16.3233 141.433 16.5716 142.173 17.0425C142.459 17.2153 142.697 17.468 142.863 17.7747C143.003 18.0743 143.072 18.4065 143.065 18.7422C143.07 19.108 143.007 19.4711 142.88 19.8099C142.735 20.1641 142.487 20.4567 142.173 20.642C141.301 21.2419 139.793 21.5386 137.669 21.5386H137.473C135.391 21.5386 133.904 21.0978 133.012 20.2162C132.73 19.9489 132.503 19.6211 132.345 19.2535C132.187 18.886 132.101 18.4866 132.093 18.081H123.595V18.4036C123.559 19.7269 123.83 21.0389 124.383 22.2191C125.15 23.7414 126.423 24.9252 128.196 25.7863L128.387 25.8701C136.396 25.2251 143.555 24.0897 148.77 22.3223C149.492 22.0804 150.194 21.8675 150.884 21.6772C151.207 20.6531 151.364 19.576 151.348 18.4939V18.081C151.369 16.9899 151.196 15.9046 150.836 14.8848Z" fill="#F5F6E6"/>
</g>
</g>
<defs>
<clipPath id="clip0_5170_1637">
<rect width="179" height="64" fill="white"/>
</clipPath>
</defs>
</svg>
